<svg width="360" height="420" viewBox="0 0 360 420" fill="none" xmlns="http://www.w3.org/2000/svg">
  <path d="M112 48L72 70L32 114L70 164L98 142V356C98 372 111 386 128 386H232C249 386 262 372 262 356V142L290 164L328 114L288 70L248 48L218 80H142L112 48Z" fill="#F0C94B"/>
  <path d="M142 80H218L206 112H154L142 80Z" fill="#0C7B46"/>
  <path d="M112 48L142 80L154 112L114 96L72 70L112 48Z" fill="#E9B935"/>
  <path d="M248 48L218 80L206 112L246 96L288 70L248 48Z" fill="#E9B935"/>
  <path d="M98 142L70 164L32 114L54 90L100 126L98 142Z" fill="#0C7B46"/>
  <path d="M262 142L290 164L328 114L306 90L260 126L262 142Z" fill="#0C7B46"/>
  <path d="M122 160H238" stroke="#0C7B46" stroke-width="10" stroke-linecap="round"/>
  <path d="M128 214H232" stroke="#2454A6" stroke-width="10" stroke-linecap="round"/>
  <circle cx="180" cy="272" r="32" fill="#0C7B46"/>
  <path d="M164 270L176 282L198 258" stroke="white" stroke-width="8" stroke-linecap="round" stroke-linejoin="round"/>
  <path d="M112 48L72 70L32 114L70 164L98 142V356C98 372 111 386 128 386H232C249 386 262 372 262 356V142L290 164L328 114L288 70L248 48L218 80H142L112 48Z" stroke="#10131A" stroke-width="8" stroke-linejoin="round"/>
</svg>
